<svg id="Layer_1" data-name="Layer 1" xmlns="http://www.w3.org/2000/svg" xmlns:xlink="http://www.w3.org/1999/xlink" viewBox="0 0 1580.25 1580.25"><defs><style>.cls-1{fill:url(#linear-gradient);}</style><linearGradient id="linear-gradient" x1="485.42" y1="793.73" x2="1103.03" y2="788.13" gradientUnits="userSpaceOnUse"><stop offset="0" stop-color="#6f3cf8"/><stop offset="0.5" stop-color="#fe2792"/><stop offset="1" stop-color="#fcae17"/></linearGradient></defs><path class="cls-1" d="M1105.42,947.53V980.4H927A154.31,154.31,0,0,1,792.1,901.66a174.23,174.23,0,0,1-145.28,75.58c-94-.79-171.15-77-173-171a177.39,177.39,0,0,1,.91-21.72,25.75,25.75,0,0,1,25.58-23.18H732.9l-13.22-32a70.63,70.63,0,0,0-65.5-43.83H524.83a51.09,51.09,0,0,1-51.09-51.09V601.54H654.18a154.28,154.28,0,0,1,134.33,77.81A174.34,174.34,0,0,1,933.17,604.7c94,.79,171.14,77,173,171a175.44,175.44,0,0,1-.89,21.72,25.78,25.78,0,0,1-25.6,23.18H848.23l13.22,32A70.65,70.65,0,0,0,927,896.44h127.36A51.09,51.09,0,0,1,1105.42,947.53Z"/></svg>