<svg width="1317" height="702" viewBox="0 0 1317 702" fill="none" xmlns="http://www.w3.org/2000/svg">
<path d="M1315.36 641.094V701.999H943.831C886.655 702.118 830.48 688.66 781.1 663.013C731.721 637.365 690.926 600.458 662.926 556.1C629.26 599.716 584.062 635.3 531.31 659.721C478.558 684.141 419.868 696.649 360.407 696.144C164.67 694.68 4.01891 553.469 0.166621 379.294C-0.126982 365.857 0.505849 352.417 2.06154 339.049C3.38688 327.291 9.56816 316.389 19.4084 308.455C29.2487 300.52 42.0477 296.117 55.3271 296.098H539.653L512.125 236.804C501.034 212.739 482.135 192.161 457.842 177.696C433.549 163.23 404.963 155.535 375.733 155.591H106.386C78.1704 155.591 51.1108 145.617 31.1596 127.864C11.2085 110.11 0 86.0317 0 60.9248V0.000673317H375.733C432.517 -0.108978 488.319 13.176 537.455 38.5024C586.591 63.8288 627.305 100.292 655.451 144.177C689.225 101.053 734.315 65.9152 786.808 41.811C839.301 17.7068 897.611 5.36483 956.678 5.85597C1152.42 7.31978 1313.05 148.531 1316.92 322.706C1317.24 336.142 1316.62 349.583 1315.07 362.951C1313.73 374.71 1307.54 385.61 1297.69 393.543C1287.84 401.476 1275.04 405.88 1261.76 405.902H779.806L807.335 465.196C818.434 489.276 837.348 509.866 861.661 524.335C885.974 538.804 914.581 546.496 943.831 546.428H1209.03C1237.24 546.442 1264.28 556.423 1284.22 574.174C1304.16 591.926 1315.36 615.996 1315.36 641.094Z" fill="url(#paint0_linear_852_4)"/>
<defs>
<linearGradient id="paint0_linear_852_4" x1="24.3215" y1="356.114" x2="1310.35" y2="343.01" gradientUnits="userSpaceOnUse">
<stop stop-color="#6F3CF8"/>
<stop offset="0.5" stop-color="#FE2792"/>
<stop offset="1" stop-color="#FCAE17"/>
</linearGradient>
</defs>
</svg>
