<svg width="1004" height="1004" viewBox="0 0 1004 1004" fill="none" xmlns="http://www.w3.org/2000/svg">
<g clip-path="url(#clip0_864_12)">
<path d="M791.279 629.191V656H627.942C602.805 656.052 578.108 650.128 556.399 638.839C534.691 627.55 516.756 611.304 504.446 591.779C489.645 610.978 469.774 626.641 446.583 637.39C423.391 648.139 397.589 653.645 371.448 653.422C285.395 652.778 214.767 590.621 213.073 513.954C212.944 508.04 213.222 502.124 213.906 496.24C214.489 491.064 217.207 486.265 221.533 482.773C225.859 479.28 231.486 477.342 237.324 477.334H450.251L438.148 451.234C433.272 440.642 424.964 431.584 414.284 425.217C403.604 418.849 391.036 415.462 378.186 415.487H259.771C247.366 415.487 235.47 411.096 226.699 403.282C217.928 395.467 213 384.869 213 373.817V347H378.186C403.15 346.952 427.682 352.8 449.284 363.948C470.886 375.096 488.786 391.146 501.16 410.463C516.008 391.481 535.831 376.014 558.909 365.404C581.987 354.794 607.622 349.361 633.59 349.578C719.645 350.222 790.263 412.379 791.965 489.046C792.106 494.96 791.833 500.876 791.151 506.76C790.562 511.936 787.841 516.734 783.511 520.226C779.18 523.718 773.553 525.657 767.715 525.666H555.83L567.933 551.766C572.813 562.365 581.128 571.428 591.817 577.797C602.506 584.166 615.082 587.552 627.942 587.522H744.533C756.935 587.528 768.822 591.921 777.589 599.735C786.355 607.549 791.279 618.144 791.279 629.191Z" fill="url(#paint0_linear_864_12)"/>
</g>
<defs>
<linearGradient id="paint0_linear_864_12" x1="223.693" y1="503.751" x2="789.077" y2="497.997" gradientUnits="userSpaceOnUse">
<stop stop-color="#6F3CF8"/>
<stop offset="0.5" stop-color="#FE2792"/>
<stop offset="1" stop-color="#FCAE17"/>
</linearGradient>
<clipPath id="clip0_864_12">
<rect width="579" height="309" fill="white" transform="translate(213 347)"/>
</clipPath>
</defs>
</svg>
