<svg width="624" height="624" viewBox="0 0 624 624" fill="none" xmlns="http://www.w3.org/2000/svg">
<path d="M603.279 438.191V465H439.942C414.805 465.052 390.109 459.128 368.399 447.839C346.691 436.55 328.756 420.304 316.446 400.779C301.645 419.978 281.774 435.641 258.583 446.39C235.391 457.139 209.589 462.645 183.448 462.422C97.3948 461.778 26.7669 399.621 25.0733 322.954C24.9442 317.04 25.2224 311.124 25.9063 305.24C26.489 300.064 29.2065 295.265 33.5326 291.773C37.8588 288.28 43.4857 286.342 49.3238 286.334H262.251L250.148 260.234C245.272 249.642 236.964 240.584 226.284 234.217C215.604 227.849 203.036 224.462 190.186 224.487H71.7711C59.3665 224.487 47.4701 220.096 38.6989 212.282C29.9277 204.467 25 193.869 25 182.817V156H190.186C215.15 155.952 239.682 161.8 261.284 172.948C282.886 184.096 300.786 200.146 313.16 219.463C328.008 200.481 347.831 185.014 370.909 174.404C393.987 163.794 419.622 158.361 445.59 158.578C531.645 159.222 602.264 221.379 603.965 298.046C604.106 303.96 603.833 309.876 603.151 315.76C602.562 320.936 599.841 325.734 595.511 329.226C591.18 332.718 585.553 334.657 579.715 334.666H367.83L379.933 360.766C384.813 371.365 393.128 380.428 403.817 386.797C414.506 393.166 427.082 396.552 439.942 396.522H556.533C568.935 396.528 580.822 400.921 589.589 408.735C598.355 416.549 603.279 427.144 603.279 438.191Z" fill="url(#paint0_linear_873_5)"/>
<defs>
<linearGradient id="paint0_linear_873_5" x1="35.6926" y1="312.751" x2="601.077" y2="306.997" gradientUnits="userSpaceOnUse">
<stop stop-color="#6F3CF8"/>
<stop offset="0.5" stop-color="#FE2792"/>
<stop offset="1" stop-color="#FCAE17"/>
</linearGradient>
</defs>
</svg>
