<svg width="48" height="48" viewBox="0 0 48 48" fill="none" xmlns="http://www.w3.org/2000/svg">
<path d="M46.4068 33.707V35.7692H33.8424C31.9088 35.7732 30.0091 35.3175 28.3392 34.4492C26.6693 33.5807 25.2896 32.3311 24.3427 30.8292C23.2042 32.306 21.6757 33.5108 19.8917 34.3377C18.1078 35.1645 16.123 35.588 14.1121 35.5709C7.49266 35.5214 2.05974 30.7401 1.92946 24.8426C1.91953 24.3877 1.94093 23.9326 1.99355 23.48C2.03837 23.0818 2.24741 22.7127 2.58018 22.4441C2.91296 22.1754 3.3458 22.0263 3.79489 22.0257H20.1739L19.2429 20.018C18.8679 19.2032 18.2287 18.5064 17.4072 18.0167C16.5856 17.5269 15.6189 17.2663 14.6304 17.2682H5.5216C4.5674 17.2682 3.6523 16.9305 2.97759 16.3294C2.30288 15.7282 1.92383 14.913 1.92383 14.0629V12H14.6304C16.5507 11.9963 18.4379 12.4461 20.0995 13.3037C21.7612 14.1612 23.1381 15.3958 24.0899 16.8817C25.2321 15.4216 26.757 14.2318 28.5322 13.4157C30.3074 12.5995 32.2793 12.1816 34.2769 12.1983C40.8965 12.2478 46.3287 17.0292 46.4596 22.9266C46.4704 23.3815 46.4494 23.8366 46.397 24.2893C46.3517 24.6874 46.1424 25.0565 45.8093 25.3251C45.4761 25.5937 45.0433 25.7428 44.5942 25.7436H28.2954L29.2264 27.7512C29.6017 28.5665 30.2414 29.2637 31.0636 29.7536C31.8858 30.2435 32.8532 30.504 33.8424 30.5017H42.8109C43.765 30.5021 44.6794 30.8401 45.3537 31.4411C46.0281 32.0422 46.4068 32.8572 46.4068 33.707Z" fill="url(#paint0_linear_873_5)"/>
<defs>
<linearGradient id="paint0_linear_873_5" x1="2.74634" y1="24.0578" x2="46.2374" y2="23.6152" gradientUnits="userSpaceOnUse">
<stop stop-color="#6F3CF8"/>
<stop offset="0.5" stop-color="#FE2792"/>
<stop offset="1" stop-color="#FCAE17"/>
</linearGradient>
</defs>
</svg>
